<?xml version="1.0" standalone="no"?>
<!DOCTYPE svg PUBLIC "-//W3C//DTD SVG 1.1//EN" "http://www.w3.org/Graphics/SVG/1.1/DTD/svg11.dtd" >
<svg xmlns="http://www.w3.org/2000/svg" xmlns:xlink="http://www.w3.org/1999/xlink" version="1.1">
<metadata></metadata>
<defs>
<font id="kingthings_foundationregular" horiz-adv-x="916" >
<font-face units-per-em="2048" ascent="1638" descent="-410" />
<missing-glyph horiz-adv-x="487" />
<glyph horiz-adv-x="0" />
<glyph unicode="&#xd;" horiz-adv-x="390" />
<glyph unicode=" "  horiz-adv-x="487" />
<glyph unicode="&#x09;" horiz-adv-x="487" />
<glyph unicode="&#xa0;" horiz-adv-x="487" />
<glyph unicode="!" horiz-adv-x="515" d="M107 125q92 -77 127 -197l-87 -76l27 -26l355 289l-21 33l-93 -78q-40 135 -126 197zM162 336l207 186l1 968l-208 -176v-978z" />
<glyph unicode="&#x22;" horiz-adv-x="598" d="M45.5 1192q-22.5 -152 55.5 -210l190 172q-133 167 87 364l-27 25q-283 -199 -305.5 -351zM315.5 1192q-22.5 -152 55.5 -210l190 172q-133 167 87 364l-27 25q-283 -199 -305.5 -351z" />
<glyph unicode="#" horiz-adv-x="824" d="M20 561h184l-66 -284l119 48l56 236h145l-66 -284l122 52l53 232h128l47 116h-149l37 181h134l47 116h-155l60 277l-118 -48l-50 -229l-146 -1l59 278l-123 -47l-45 -231h-153l-51 -115h178l-37 -181h-159zM339 677l36 181h146l-37 -181h-145z" />
<glyph unicode="$" horiz-adv-x="1123" d="M38 441q-29 -87 59.5 -205t203.5 -180q105 -58 229 -66l1 -370l120 77v302q86 22 168 87q127 103 209.5 232.5t65 267.5t-95.5 194q-72 51 -346 146v323h212l120 208h-332v315l-124 -69v-246h-164q-197 -273 -209 -393t83 -210q81 -78 291 -155l1 -489q-57 21 -110 56 q-121 82 -165 173t-6 191l-18 19zM302 1249h227v-278q-241 104 -227 278zM651 180v476q231 -85 271 -186q45 -110 -23.5 -205t-212.5 -87q-18 0 -35 2z" />
<glyph unicode="%" horiz-adv-x="1349" d="M28 1086q-11 -136 88.5 -256.5t204.5 -127t181 46.5t137 164t50 245.5t-90 215.5t-161.5 98t-155 -13t-158 -133.5t-96.5 -239.5zM142 1198q27 122 136.5 143t202 -69t97.5 -222.5t-59 -188.5t-171 -29.5t-170 135.5t-36 231zM376 -1l70 -83l529 1546l-64 87zM658 376 q-11 -136 88.5 -256.5t204.5 -127t181 46.5t137 164t50 245.5t-90 215.5t-161.5 98t-155 -13t-158 -133.5t-96.5 -239.5zM775 495q27 122 136.5 143t202 -69t97.5 -222.5t-59 -188.5t-171 -29.5t-170 135.5t-36 231z" />
<glyph unicode="&#x26;" horiz-adv-x="1383" d="M35 273q67 -255 322 -281t453 265q202 -199 310 -255.5t263 290.5l-27 19q-42 -96 -108.5 -85.5t-295.5 225.5l405 525l-23 33l-360 1l-182 -224l340 -2l-234 -286q-297 260 -452 546q-71 134 -60 202t78 80t120.5 -36t67.5 -155t-93 -215l35 -40l238 235q69 168 -15 263 t-224 86.5t-304.5 -181t-36.5 -354.5l76 -123q-360 -278 -293 -533zM319.5 273.5q-221.5 257.5 49.5 468.5q125 -169 388 -430q-216 -296 -437.5 -38.5z" />
<glyph unicode="'" horiz-adv-x="380" d="M38 1006l27 -25q283 199 305.5 351t-55.5 210l-190 -172q133 -167 -87 -364z" />
<glyph unicode="(" horiz-adv-x="418" d="M27.5 763.5q-24.5 -247.5 28.5 -574t199 -588.5l187 144q-511 990 -35 1986l-39 9q-105 -175 -210.5 -452t-130 -524.5z" />
<glyph unicode=")" horiz-adv-x="449" d="M18 1595q511 -990 35 -1986l39 -9q105 175 210.5 452t130 524.5t-28.5 574t-199 588.5z" />
<glyph unicode="*" horiz-adv-x="610" d="M36 1110h215l-156 -166l31 -30l145 166v-219l75 59l-1 127l125 -125l56 64l-128 123h138l69 88l-237 1l132 166l-26 22l-126 -156v225l-75 -51v-144l-107 142l-66 -57l126 -151h-134z" />
<glyph unicode="+" horiz-adv-x="946" d="M48 609l328 1v-364l171 172v192h215l142 178h-358l1 348l-167 -148v-201h-206z" />
<glyph unicode="," horiz-adv-x="363" d="M23 -141l27 -25q283 199 305.5 351t-55.5 210l-190 -172q133 -167 -87 -364z" />
<glyph unicode="-" d="M32 605h703l151 172h-728z" />
<glyph unicode="." horiz-adv-x="440" d="M51 170q99 -83 136 -212l195 152q-43 145 -135 212z" />
<glyph unicode="/" horiz-adv-x="472" d="M-20 -309l111 -30l408 2101l-110 24z" />
<glyph unicode="0" horiz-adv-x="1312" d="M31.5 727.5q-21.5 -260.5 169 -491t391.5 -243.5t346.5 89t263 314t96.5 470t-173 412.5t-310 187.5t-296 -24t-302 -255.5t-185.5 -459zM214 974q57 256 286.5 300t423.5 -145t204.5 -467.5t-124 -396.5t-359 -61.5t-356.5 285.5t-75 485z" />
<glyph unicode="1" horiz-adv-x="729" d="M15 1120l33 -55q164 154 189 25l-1 -852l-193 -238l485 -2l191 223h-383q103 114 130 265v1001z" />
<glyph unicode="2" horiz-adv-x="1072" d="M11 -2l850 1l190 342l-35 14l-45 -74l-630 -2l521 681q95 124 20.5 311.5t-311.5 197t-370 -126t-150 -295.5t81 -282l216 205q-116 135 -98.5 259t161 108.5t245 -177.5t-6.5 -332l-97 -129z" />
<glyph unicode="3" horiz-adv-x="1056" d="M68.5 262q133.5 -209 312.5 -258t291.5 40.5t255 276t114.5 436.5q-31 147 -118.5 221t-270.5 58l339 425h-760l-162 -254l623 1l-273 -351q177 31 286.5 -53t162.5 -250t-76.5 -283.5t-292.5 -65t-250.5 214t40.5 282.5l-35 28q-320 -259 -186.5 -468z" />
<glyph unicode="4" horiz-adv-x="1111" d="M1 436l491 1l1 -237l-137 -207l393 -1l164 213l-340 -1q99 64 129 180v60h275l136 212l-412 1l1 396l-209 -239v-157l-264 -2q478 627 298 861l-187 -211q114 -207 -339 -869z" />
<glyph unicode="5" horiz-adv-x="1048" d="M39 330q91 -221 255.5 -294t309.5 -22.5t223.5 143.5t149.5 234t20 318t-228 271.5t-445 44.5l-2 226l450 3l159 203l-561 2l-220 -260l2 -457q203 144 355.5 110t265 -155.5t107.5 -265.5t-170 -206t-299.5 8.5t-174.5 161t-57 147.5z" />
<glyph unicode="6" horiz-adv-x="1026" d="M35.5 489.5q13.5 -168.5 97.5 -274.5t184.5 -162.5t204 -53t255.5 122.5t203.5 307t-30 328.5t-227.5 201t-305 -31.5t-227 -262q-7 286 69.5 413.5t135 148.5t153 18t136.5 -103l164 178q4 82 -105.5 126.5t-224.5 8t-261.5 -225t-191 -380t-31 -360zM213 599 q106 194 247.5 207t276 -157.5t88.5 -317t-182.5 -153t-277 131.5t-152.5 289z" />
<glyph unicode="7" horiz-adv-x="923" d="M-3 1200l704 1q-353 -630 -382 -858.5t132 -366.5l190 227q-134 113 -148 217.5t40 275t392 767.5l-760 -2z" />
<glyph unicode="8" horiz-adv-x="1058" d="M40.5 387.5q9.5 -186.5 156.5 -298t318.5 -106.5t284.5 106.5t185 234.5t9.5 270.5t-324.5 239.5q326 214 248.5 413t-290 218t-332 -107.5t-162 -237t-1.5 -188t199 -156.5q-301 -202 -291.5 -388.5zM244 417q-61 181 135 324q316 -131 411 -259t34.5 -255t-290 -59 t-290.5 249zM275.5 1199q27.5 115 210.5 101t246.5 -176t-123.5 -254q-76 30 -218.5 122t-115 207z" />
<glyph unicode="9" horiz-adv-x="1023" d="M51.5 1041q-51.5 -188 30 -328.5t227.5 -201t305 31.5t227 262q22 -262 -39 -397t-130.5 -175.5t-201 -37.5t-203.5 100l-147 -145q29 -82 167 -129.5t254.5 -2t237.5 203.5t176 374t41.5 384.5t-90 279t-184.5 162.5t-211.5 48.5t-255.5 -122.5t-203.5 -307zM207 1138.5 q46 146.5 199 157.5t277 -131.5t136 -293.5q-106 -194 -256.5 -201t-276 157.5t-79.5 311z" />
<glyph unicode=":" horiz-adv-x="430" d="M51 170q99 -83 136 -212l195 152q-43 145 -135 212zM51 700q99 -83 136 -212l195 152q-43 145 -135 212z" />
<glyph unicode=";" horiz-adv-x="417" d="M23 -141l27 -25q283 199 305.5 351t-55.5 210l-190 -172q133 -167 -87 -364zM51 700q99 -83 136 -212l195 152q-43 145 -135 212z" />
<glyph unicode="&#x3c;" horiz-adv-x="580" d="M29 708q240 -177 377 -406l151 129q-170 240 -349 363l346 313l-33 40z" />
<glyph unicode="=" horiz-adv-x="985" d="M72 428h703l151 172h-728zM74 744h703l151 172h-728z" />
<glyph unicode="&#x3e;" horiz-adv-x="577" d="M29 1017q170 -240 349 -363l-346 -313l33 -40l492 439q-240 177 -377 406z" />
<glyph unicode="?" horiz-adv-x="982" d="M119 905l206 112q-84 192 -9 295.5t203 65.5t168.5 -189.5t-2.5 -270.5t-267 -225v-376l207 139l-1 251q297 193 295.5 446.5t-245.5 328.5t-458.5 -98t-96.5 -479zM357 125q92 -77 127 -197l-87 -76l27 -26l355 289l-21 33l-93 -78q-40 135 -126 197z" />
<glyph unicode="@" horiz-adv-x="1514" d="M44 728q-32 -171 9 -350.5t189 -330.5t409.5 -185.5t557.5 224.5l-29 27q-482 -180 -726.5 45t-235.5 530.5t185 434.5t436.5 74t391 -325.5t58.5 -424.5t-172 -123t-112 110v382l94 64l-21 26l-78 -49q-44 106 -167 141t-253 -26.5t-150 -207.5l157 71q18 96 72.5 119 t117 -21.5t64.5 -163.5l-448 -233q11 -153 109.5 -230t190.5 -61.5t152 119.5q17 -96 135.5 -132.5t220.5 19.5t205.5 208.5t55.5 402t-258 400.5t-501 99.5t-459 -257t-200 -376.5zM562 576l280 147l-1 -324q-95 -64 -190.5 -2t-88.5 179z" />
<glyph unicode="A" horiz-adv-x="1430" d="M-9 -1l324 1l168 207l-253 7q121 86 219 308h274l121 146l231 -516q66 -145 200 -158l175 321l-32 20l-53 -91q-87 6 -137 78l-469 1093q-12 35 -13 67q0 77 72 137l-28 25q-204 -170 -218 -266q-3 -20 -4 -40q0 -73 43 -140l-196 -493h-138l-175 -251l47 -25l67 93h128 q-80 -190 -353 -523zM510 700l145 399l181 -399h-326z" />
<glyph unicode="B" horiz-adv-x="1152" d="M-2 1239l29 -12q28 44 145 45h136q-93 -96 -136 -231v-848l-151 -194l718 -1q136 55 283 257q104 158 104 298q0 23 -2 45q-20 160 -134 224q-95 53 -214 53q-24 0 -49 -2q199 130 199 340q0 209 -287 246l-499 -2zM231 194q118 118 138 282v213l301 2q136 -1 222 -81 q84 -78 84 -212v-9q-3 -140 -148 -195h-597zM366 1270q74 11 133 11q216 1 240 -143q6 -37 6 -70q0 -128 -95 -187h-282z" />
<glyph unicode="C" horiz-adv-x="1177" d="M24 591q21 -209 190 -387q170 -178 428 -210q20 -2 40 -2q240 0 496 344l-34 26q-152 -168 -324 -181q-17 -1 -33 -1q-154 0 -297 108q-158 120 -228 293q-40 99 -40 208q0 81 22 168q52 203 225 302l476 -2q-38 -50 -51 -89q-6 -20 -6 -42q0 -27 9 -58q17 -56 77 -80 q29 -12 60 -13t63 13q63 26 84 133l-9 3q-23 -103 -87 -120q-26 -7 -50 -7q-33 1 -61 15q-48 24 -60 79q-3 16 -2 31q0 38 20 74q23 40 43 61h4l173 203h-575q-319 -236 -447 -448q-109 -182 -109 -362q0 -29 3 -59z" />
<glyph unicode="D" horiz-adv-x="1253" d="M17 -3h628q125 31 193 85t128 108q62 52 172 226q88 138 88 322q0 47 -6 97q-28 245 -232 439q-198 189 -471 188h-14l-303 -2l-163 -239l23 -15q18 37 84 37q12 0 26 -1h200q-148 -106 -156 -207l-2 -835zM278 201q112 104 126 215l-1 700q12 124 121 126q9 1 18 1 q87 -1 234 -83q162 -92 238 -329q43 -136 44 -249q0 -84 -24 -156q-56 -167 -210 -225h-546z" />
<glyph unicode="E" horiz-adv-x="1103" d="M14 -5l853 1l226 253l-32 15q-53 -57 -127 -57h-684q103 75 134 214v269h270q-34 -46 -46 -82q-6 -20 -6 -43q0 -27 9 -58q17 -57 77 -81q29 -12 60 -12t63 14q63 26 84 132l-9 3q-23 -103 -87 -120q-26 -7 -50 -7q-33 0 -61 14q-48 24 -60 80q-3 16 -2 31q0 38 20 74 q29 50 49 71l167 177h-472v379h478l206 197h-843l-205 -232l21 -21q31 57 154 57q12 0 25 -1l119 -1q-103 -76 -147 -227l-1 -187l-181 -194l26 -20q37 56 154 67v-490z" />
<glyph unicode="F" horiz-adv-x="967" d="M4 -5l408 1l202 240l-357 -1q116 107 147 251v214h196l182 222l-372 1v306h468l206 230h-843l-214 -261l21 -15q43 41 111 41h9l187 -1q-118 -59 -147 -237l-1 -99l-191 -224l32 -14q32 61 144 61h14l1 -470z" />
<glyph unicode="G" horiz-adv-x="1298" d="M39 589q21 -209 190 -387t429 -211q20 -2 39 -2q146 0 275 126l1 -172l199 166l1 575l143 192h-427l-179 -219l27 -18q50 32 117 32h248q-114 -85 -124 -248l-1 -203q-60 -36 -140 -41q-18 -1 -36 -1q-153 0 -295 108q-159 120 -229 293q-45 112 -45 237q0 68 13 139 q38 203 210 303h507q-32 -45 -44 -80q-6 -20 -6 -42q0 -27 9 -58q17 -56 77 -80q29 -13 60 -13t63 13q63 26 84 133l-9 3q-23 -103 -87 -120q-26 -7 -50 -7q-33 0 -61 15q-48 24 -60 79q-3 16 -3 31q0 38 21 74q19 32 35 52h5l173 201h-606q-320 -237 -433 -449 q-94 -179 -94 -355q0 -33 3 -66z" />
<glyph unicode="H" horiz-adv-x="1355" d="M-19 644l33 -17q11 57 144 57q24 0 51 -2l-2 -448l-182 -240h327l205 239h-296q100 79 160 267v182h453l107 87l4 -527l-198 -247h367l205 238l-326 1q100 78 160 257l1 733l207 236h-379l-197 -239l313 1q-78 -50 -157 -239v-104h-559v344l207 236h-409l-180 -238h326 q-108 -69 -157 -239v-108l-65 -5z" />
<glyph unicode="I" horiz-adv-x="660" d="M37 -5h367l205 238l-326 1q100 78 160 257l1 733l207 236h-379l-197 -239l313 1q-78 -50 -157 -239v-104v-110l4 -527z" />
<glyph unicode="J" horiz-adv-x="1184" d="M12 296q93 -170 246 -262q86 -49 162 -49q99 0 179 83q213 153 283 444v739h299l186 213h-1053l-163 -257q-18 -30 -27 -55q-6 -20 -6 -42q0 -27 9 -58q17 -56 77 -80q29 -13 60 -13t63 13q63 26 84 133l-9 3q-23 -103 -87 -120q-26 -7 -50 -7q-33 0 -61 15 q-48 24 -60 79q-3 16 -3 31q0 38 21 74q5 8 9 16q56 56 111 56l11 -1h514q-91 -49 -142 -199v-530q1 -37 1 -70q0 -228 -42 -278q-24 -27 -66 -27q-45 0 -110 29q-128 59 -234 198q-44 58 -44 121q0 86 83 179l-21 19l-122 -115q-103 -89 -103 -224q0 -28 5 -58z" />
<glyph unicode="K" horiz-adv-x="1200" d="M-10 1205l39 -16q13 44 85 48l205 -1q-110 -88 -146 -212v-809l-151 -217l380 2l151 206l-326 -1q130 124 146 249l1 224q20 31 60 32h1q40 0 114 -60q75 -60 127 -170.5t120 -267.5t198 -216q22 -10 45 -10q112 0 247 245l-22 20q-54 -76 -110 -76q-27 0 -55 17 q-86 53 -170 278t-156 300t-211 107l537 584h-396l-180 -229l36 -23q17 30 79 30h15l159 -1l-435 -461l1 466l195 219l-386 -1z" />
<glyph unicode="L" horiz-adv-x="893" d="M4 1209l38 -15q24 46 102 49l205 -1q-101 -77 -136 -190v-849l-166 -206l796 3l163 252l-33 14q-26 -59 -158 -60l-560 -1q68 21 148 177l1 866l3 2l201 186l-6 23l-415 -2z" />
<glyph unicode="M" horiz-adv-x="1632" d="M27 -2l386 2l182 203h-341q98 79 135 235l-3 680l359 -565q36 -45 36 -96q0 -56 -44 -120l15 -35l145 149q53 58 53 124q0 77 -71 165l362 507l144 1q-112 -89 -147 -281v-759l-205 -213l408 1l184 208h-336q98 56 151 241l-2 802h129l151 214l-402 -1l-116 -178 l-362 -488l-400 611q-42 71 -111 71q-9 0 -18 -1q-82 -10 -280 -251l36 -23q78 87 144 87q71 0 127 -104q-117 -99 -139 -223l1 -760z" />
<glyph unicode="N" horiz-adv-x="1366" d="M15 -2h414l194 209l-382 2q89 69 151 232l-1 609l605 -873l-146 -183l383 1l192 218l-324 -2q84 78 105 245l-1 804l202 202l-438 1l-178 -217l29 -22q16 33 73 33q8 0 16 -1h230q-91 -78 -109 -209v-589q-652 1005 -727 1005h-2q-66 -18 -286 -262l39 -23q66 63 123 63 q59 0 110 -66q-99 -116 -99 -170q0 -4 1 -8l-2 -790z" />
<glyph unicode="O" horiz-adv-x="1474" d="M52 840q-14 -75 -15 -147q0 -87 21 -169q38 -150 170 -305t338 -213q69 -19 137 -19q135 -1 265 75q196 114 282 232q86 117 156 275q42 95 42 221q0 84 -18 180q-46 242 -251 388q-178 128 -400 128q-32 0 -64 -2q-296 -59 -463.5 -268.5t-199.5 -375.5zM236 904 q20 226 176 345q107 82 252 82q65 0 138 -16q236 -53 360 -361q82 -204 83 -355q1 -77 -21 -139q-64 -184 -218 -277q-98 -30 -184 -30q-237 0 -393 222q-194 276 -195 489q0 20 2 40z" />
<glyph unicode="P" horiz-adv-x="1146" d="M7 1188l37 -38l96 103l258 -10q-148 -71 -156 -253l-1 -795q-46 -85 -163 -201h340l193 196l-322 1q138 89 164 254v39q60 -11 115 -11q210 -1 348 161q176 204 192 398q2 18 1 36q-1 169 -145 285q-135 108 -282 107q-28 0 -55 -3l-416 2l-132 -190zM444 1246 q57 6 107 6q146 0 230 -54q112 -74 160 -250q12 -45 12 -84q1 -112 -103 -170q-48 -27 -106 -26q-108 0 -247 94l-48 -59z" />
<glyph unicode="Q" horiz-adv-x="1438" d="M40 836q32 166 200 375.5t464 268.5q33 3 64 3q222 0 400 -129q204 -146 250 -388q19 -97 19 -180q0 -126 -43 -221q-70 -158 -156 -275q-27 -38 -65 -74q83 -114 148 -203q84 -115 140 -155q20 -15 41 -15q37 0 76 45l38 -35q-193 -183 -268 -183h-8q-71 11 -194 168 q-92 120 -175 229q-7 -4 -15 -9q-130 -75 -264 -75q-68 0 -138 19q-205 58 -337 212.5t-170 305.5q-21 82 -21 169q0 72 14 147zM236 904q-1 -20 -1 -40q0 -213 194 -489q156 -222 393 -222q39 0 80 6q-93 119 -142 125h-10q-48 0 -103 -41l-17 29q196 184 283 184 q8 0 15 -1q84 -17 196 -172h3q35 0 97 177q21 62 21 138q0 151 -83 356q-124 308 -360 361q-73 16 -138 16q-146 0 -252 -82q-155 -119 -176 -345z" />
<glyph unicode="R" horiz-adv-x="1187" d="M1 1223l17 -16q48 30 126 39l219 1q-109 -113 -163 -276l-1 -581l1 -187q-30 -67 -170 -207h407l168 210l-359 -2q149 113 170 249l1 234h29q89 0 133 -16q51 -19 91 -51.5t81.5 -168t106 -268.5t151.5 -184q15 -9 33 -9q88 0 255 202l-28 27q-40 -60 -79 -60l-35 11 q-57 38 -103.5 144t-82 220t-109.5 182q-60 56 -144 56q-20 0 -41 -3q165 29 259 163q56 80 55 181q1 69 -25 145q-64 190 -364 200l-414 -2zM413 1249q38 2 71 2q134 0 198 -29q80 -36 98 -158q4 -28 4 -54q0 -86 -49 -142q-61 -72 -307 -72h-13z" />
<glyph unicode="S" horiz-adv-x="1119" d="M28 441q-7 -21 -7 -45q1 -71 67 -160q88 -118 203 -180q115 -64 253 -68h12q132 0 253 98q127 102 209 232q68 107 69 220q1 24 -3 48q-18 138 -96 194q-78 54 -395 162q-302 102 -301 288v19h544q-23 -45 -25 -83v-9q0 -46 27 -89q30 -47 92 -57q13 -2 26 -2q48 0 91 30 q50 35 50 130v14l-8 1q-1 -102 -53 -136q-37 -24 -78 -23q-16 -1 -34 3q-58 14 -80 65q-13 30 -13 62q0 22 6 45q8 29 17 49h1l15 25q0 1 1 2h-1l104 181h-620q-197 -273 -209 -393q-1 -13 -1 -27q0 -103 84 -183q95 -90 368 -182q272 -92 316 -202q18 -44 18 -84 q0 -63 -42 -121q-63 -88 -191 -88q-10 1 -21 1q-144 8 -265.5 89t-165.5 172q-24 49 -23 100q0 44 17 91l-18 19z" />
<glyph unicode="T" horiz-adv-x="1232" d="M-3 1221l39 -15q10 40 88 43l554 -1q-103 -76 -169 -216v-820l-207 -217l422 1l184 217l-346 -1q99 110 163 267l-1 768l358 1l196 215h-1111z" />
<glyph unicode="U" horiz-adv-x="1272" d="M31 1222l27 -15q30 27 80 32h216q-328 -303 -328 -543q0 -59 20 -114q100 -280 269 -445q156 -152 260 -152q9 -1 17 1q108 14 190 144q72 113 72 133q0 3 -2 4q56 -211 174 -267q18 -9 37 -9q108 0 256 263l-30 34q-69 -126 -124 -126q-15 0 -29 9q-64 43 -73 228l3 848 l59 -1l152 216l-418 1l-174 -230l38 -16q1 32 89 32h5h196q-126 -96 -163 -256v-592q-82 -210 -195 -210q-3 1 -5 1q-116 4 -244.5 173t-169.5 323q-25 94 -25 177q1 53 11 101q26 124 216 298l173 201h-396l-9 -18z" />
<glyph unicode="V" horiz-adv-x="1225" d="M13 1211l34 -55q74 80 120 80q33 0 52 -42l449 -931q26 -55 26 -106q0 -76 -59 -142l39 -38q166 103 210 207q19 45 19 84q0 51 -33 90l216 281q159 266 159 466q0 61 -14 115q-62 234 -300 245l-273 -231l34 -42l85 60q22 15 45 15q60 -1 122 -113q78 -143 78 -316v-24 q-6 -188 -188 -374l-475 971q-37 50 -72 50q-25 0 -49 -28q-56 -65 -225 -222z" />
<glyph unicode="W" horiz-adv-x="1774" d="M-2 1217l34 -55q73 80 119 80q33 0 53 -42l448 -930q26 -55 26 -106q0 -76 -59 -142l39 -38q166 104 210 208q19 45 18 83q0 51 -32 90l182 202l141 -292q26 -55 26 -106q0 -76 -59 -142l39 -38q165 103 209 207q19 45 19 84q0 51 -32 90l216 281q158 266 159 466 q0 60 -15 114q-62 234 -300 245l-272 -230l34 -43l85 60q22 15 45 15q61 0 121 -112q78 -144 79 -318q-1 -12 -1 -24q-6 -188 -187 -372l-475 970q-37 50 -72 50q-26 0 -50 -28q-56 -65 -223 -222l34 -55q73 80 119 80q33 0 52 -42l268 -555l-178 -203l-474 970 q-37 50 -72 50q-26 0 -50 -28q-56 -65 -224 -222z" />
<glyph unicode="X" horiz-adv-x="1249" d="M4 0l454 -2l189 260l-371 1l270 384l354 -580q38 -74 76 -74q28 0 55 39l216 319l-43 28q-42 -78 -98 -78q-37 0 -81 34l-319 500l492 588l-23 39l-368 1l-182 -270l300 -2l-252 -301l-313 522q-40 66 -83.5 66t-90.5 -66l-170 -246l22 -38q55 78 112 78q38 0 77 -35 l283 -459z" />
<glyph unicode="Y" horiz-adv-x="1132" d="M-29 1242l37 -25q40 60 77 60q13 0 26 -7l389 -620l-1 -451l-160 -202l380 -1l168 235l-35 26q-23 -61 -98 -61q-12 0 -25 1h-177q132 58 158 251l1 266l461 749h-380l-200 -239l19 -23q26 40 95 40q12 0 25 -1l223 -1l-282 -456l-380 603q-46 92 -94 92q-42 0 -85 -71z " />
<glyph unicode="Z" horiz-adv-x="1026" d="M3 35l28 -36h797l194 310l-25 24l-71 -101h-708l779 1195l-16 32l-739 1l-216 -301l32 -30l67 91h649z" />
<glyph unicode="[" horiz-adv-x="510" d="M-24 -347l407 -1l161 208l-320 2v1621l192 -1l150 202h-309l-149 -200l1 -1630z" />
<glyph unicode="\" horiz-adv-x="459" d="M-19 1762l110 24l409 -2095l-111 -30z" />
<glyph unicode="]" horiz-adv-x="542" d="M9 -347l138 209h180l1 1621l-282 -1l160 195h399l-162 -193v-1630l-167 -201h-267z" />
<glyph unicode="_" horiz-adv-x="976" d="M2 -406l21 -8q65 45 188 43h521q149 12 245 146l-12 10q-106 -56 -233 -54h-438q-208 -8 -292 -137z" />
<glyph unicode="a" horiz-adv-x="1073" d="M32 377q14 -201 147 -302q111 -84 215 -84q21 -1 42 3q124 20 205 158q22 -127 167 -163q13 -1 26 -1q193 0 248 212l-23 9q-42 -73 -109 -73h-6q-71 4 -87 107v502l166 104l-19 36l-155 -87q-58 140 -224 186q-60 16 -121 16q-108 0 -220 -52q-175 -80 -203 -271l212 92 q23 127 97 157q25 10 52 10q50 0 106 -38q84 -58 87 -216zM259 429l378 193l-2 -425q-65 -43 -130 -43q-63 0 -127 40q-120 76 -120 215q0 10 1 20z" />
<glyph unicode="b" horiz-adv-x="1130" d="M-44 1269l41 -51l66 60q28 16 49 16q55 0 55 -114q0 -19 -2 -41v-695q5 -247 182 -379q103 -77 200 -77q69 0 137 40q160 96 257.5 179t145.5 246q18 61 18 124q0 107 -51 221q-80 182 -312 209q-22 3 -44 2q-201 0 -325 -220v173v607zM375 458v215q48 118 140 176 q22 2 44 2q185 0 277 -157q80 -136 81 -260q0 -36 -7 -72q-30 -156 -119 -206q-37 -21 -86 -21q-67 0 -156 41q-153 69 -174 282z" />
<glyph unicode="c" horiz-adv-x="821" d="M36 321q50 -161 196 -263q94 -66 199 -65q59 1 121 21q174 58 287 337l-37 23q-64 -174 -208 -188q-16 -2 -33 -1q-126 1 -231 101q-118 114 -152 246q-14 57 -15 101q0 61 26 102q39 62 99 62q8 0 17 -1h272q-38 -51 -51 -90q-6 -20 -6 -42q0 -27 9 -58q17 -56 77 -80 q29 -12 60 -13t63 13q63 26 84 133l-9 3q-23 -103 -87 -120q-26 -7 -50 -7q-33 1 -61 15q-48 24 -60 79q-3 16 -2 31q0 38 20 74q24 41 48 62l164 216l-350 -1q-120 -73 -223 -182.5t-159 -228.5q-30 -63 -31 -139q0 -65 23 -140z" />
<glyph unicode="d" horiz-adv-x="1110" d="M50 302q50 -156 200 -256q86 -58 181 -58q71 0 148 32q84 37 154 124q32 -66 87 -106q63 -45 115 -45q55 -1 99 47q86 94 136 174l-48 24q-35 -87 -92 -87q-24 0 -54 17q-89 51 -89 256v31v1131l-421 -312l24 -37l69 48q30 9 53 9q78 0 78 -97q0 -9 -1 -19v-168l-239 -1 q-123 -72 -228.5 -179t-163.5 -239q-31 -71 -31 -148q-1 -68 23 -141zM190 504q-13 57 -13 104q1 72 29 124q42 76 104 76q8 0 16 -1l265 1l98 117v-555q1 -81 16 -145q-41 -29 -90 -42q-43 -12 -84 -12q-105 0 -191 80q-118 111 -150 253z" />
<glyph unicode="e" horiz-adv-x="904" d="M28 465q0 -178 78 -293q78 -114 212 -162q71 -25 146 -25q68 0 140 20q152 43 298 345l-25 30q-125 -230 -302 -230q-14 0 -29 1q-196 20 -273 203l565 399q-17 89 -94 171q-76 84 -201 96q-21 2 -41 1q-102 0 -191 -51q-107 -62 -195 -194.5t-88 -310.5zM198 617 q0 11 -1 21q0 90 35 156q39 72 111 84q18 3 37 3q53 -1 106 -25q71 -34 124 -184l-367 -260q-41 101 -45 205z" />
<glyph unicode="f" horiz-adv-x="639" d="M-48 732l30 -1q1 35 111 35h6l74 -1v-568l-170 -198h339l186 198l-299 -2q122 124 122 266v306h126q-25 -35 -34 -63q-5 -16 -5 -33q0 -22 8 -47q13 -44 60 -63q23 -9 46 -9q25 0 50 10q50 20 67 104l-7 3q-19 -81 -69 -95q-21 -5 -39 -5q-27 0 -48 11q-38 19 -47 62 q-3 13 -3 25q0 30 17 59q15 26 28 41h3l10 13l124 162l-7 8h-292v328h320l158 181h-432l-210 -242l-1 -268h-83z" />
<glyph unicode="g" horiz-adv-x="1134" d="M22 -80v-11q0 -126 85 -230q89 -109 247 -155q81 -23 163 -23q75 0 151 20q156 42 251.5 140t150.5 201q28 53 28 108q0 51 -26 104q-52 108 -287 182q52 43 117.5 122.5t71.5 234.5v19q0 143 -87 245q156 134 156 244q0 5 -1 11q-8 114 -101 174l-179 -161 q103 -68 103 -146q0 -39 -26 -80q-104 96 -264 96t-306.5 -129.5t-150.5 -315.5v-10q0 -181 150 -320q96 -90 239 -90q84 0 184 31l-44 -94q193 -66 241 -107.5t48 -134t-134 -147.5q-69 -27 -147 -27q-75 0 -157 25q-170 52 -273 214q-39 62 -39 112q0 82 103 134l-31 43 q-232 -147 -236 -279zM312 785q46 96 131 96q45 0 101 -27q162 -77 226 -276q20 -64 20 -117q0 -109 -90 -166q-34 -10 -67 -10q-132 0 -247 157q-96 133 -96 242q0 53 22 101z" />
<glyph unicode="h" horiz-adv-x="1102" d="M-84 1301l25 -31l82 59q26 10 45 10q52 0 52 -73q0 -11 -1 -24l-1 -1010q0 -103 100 -193q48 -43 93 -43q50 0 99 51l130 170l-26 20l-57 -63q-17 -11 -37 -11q-26 0 -54 18q-50 31 -49 138v8l1 357q101 225 236 225q20 0 40 -5q159 -38 159 -285v-6v-391q0 -122 99 -190 q50 -34 95 -35q44 0 84 33l132 167l-23 17l-49 -54q-21 -14 -42 -14q-28 0 -54 27q-40 41 -40 132q0 12 1 25v357q1 18 1 35q-1 178 -87 236q-93 63 -222 62h-4q-206 -24 -328 -245l1 794l-14 15z" />
<glyph unicode="i" horiz-adv-x="621" d="M7 742l25 -31l82 59q25 10 44 10q53 0 53 -78q0 -9 -1 -19l-1 -450v-12q0 -105 101 -190q43 -36 92 -36q71 0 154 78l115 145l-26 20l-57 -63q-24 -23 -55 -23q-26 0 -57 16q-67 36 -68 160v682l-14 15zM81 1385q92 -77 127 -197l-87 -76l27 -26l355 289l-21 33l-93 -78 q-40 135 -126 197z" />
<glyph unicode="j" horiz-adv-x="464" d="M6 703l11 -24l74 55q26 15 48 15q21 0 39 -15q30 -24 30 -114q0 -15 -1 -32l1 -545q1 -409 -185 -500l22 -38q352 199 352 476v1021zM55 1379q96 -72 137 -190l-83 -80l22 -25l340 311l-17 28l-89 -83q-47 133 -136 190z" />
<glyph unicode="k" horiz-adv-x="1068" d="M-64 1293l24 -47l69 54q20 11 39 11q22 0 40 -16q29 -25 30 -99q0 -13 -1 -28v-801q5 -188 65 -271.5t181 -100.5q172 162 198 185l-34 30q-40 -45 -83 -45q-32 0 -64 24q-66 49 -66 181q0 21 2 43l129 86q12 1 23 1q120 0 147 -89l172 -361q22 -30 50 -47t61 -12 l192 220l-21 38l-45 -48q-17 -17 -34 -17q-35 0 -72 68l-132 265q-59 139 -177 139q-8 0 -16 -1l305 328l-27 21l-376 -2l-105 -167l290 -1q-162 -199 -367 -341l-3 1089z" />
<glyph unicode="l" horiz-adv-x="701" d="M-94 1263l24 -37l69 48q27 7 48 7q83 0 83 -112q0 -10 -1 -21v-781q3 -238 175 -332q76 -41 140 -41q83 0 148 66q117 120 167 211l-27 12q-94 -140 -198 -139q-34 0 -70 15q-137 59 -137 271v21v1121z" />
<glyph unicode="m" horiz-adv-x="1729" d="M-14 744l26 -29l77 53q30 14 52 14q23 0 37 -16q23 -27 23 -128v-24v-387v-13q1 -118 121 -190q57 -34 103 -33q58 1 100 53q76 94 139 183l-27 14q-42 -70 -108 -70q-17 0 -35 4q-79 19 -79 132q0 16 2 34v406q92 124 173 124q28 0 54 -15q102 -57 110 -197v-441 q28 -124 122 -185q67 -44 114 -44q19 -1 34 7q54 24 191 228l-26 4q-51 -77 -111 -77q-20 -1 -42 9q-68 29 -68 92q0 14 4 30l-1 455q88 133 168 133q25 0 51 -14q102 -57 111 -197v-441q28 -124 122 -186q66 -44 113 -45q19 0 35 8q54 26 191 229l-27 4q-43 -74 -103 -74 q-20 0 -42 8q-73 28 -73 95q0 12 2 25v450q-4 140 -77 199.5t-185 66.5q-165 -32 -296 -211q1 8 1 16q0 75 -66 129q-74 60 -185 66q-166 -32 -296 -202l1 228z" />
<glyph unicode="n" horiz-adv-x="1196" d="M-14 751l25 -31l82 59q8 1 16 1q80 0 80 -153q0 -30 -3 -65v-330q2 -103 102 -193q48 -43 93 -43q50 0 99 51l130 170l-26 20l-57 -63q-17 -11 -37 -11q-26 0 -54 18q-49 30 -48 134v12v357q101 225 236 225q20 0 40 -5q159 -38 159 -285v-6v-391q0 -122 99 -190 q50 -34 95 -35q44 0 84 33l132 167l-23 17l-49 -54q-21 -14 -42 -14q-28 0 -54 27q-40 41 -40 132q0 12 1 25v317q1 23 1 44q-1 199 -77 261q-73 59 -180 60q-17 0 -36 -2q-226 -14 -348 -235l-1 244l-14 15z" />
<glyph unicode="o" horiz-adv-x="1025" d="M40 377q24 -133 130 -249q107 -114 249 -138q32 -5 63 -6q106 0 201 62q122 80 190 160q67 80 105 189q21 62 21 139q1 59 -11 127q-28 157 -141.5 247t-223.5 104q-34 4 -66 5q-74 0 -143 -23q-99 -33 -211 -150q-112 -118 -149 -226q-23 -66 -23 -141q0 -48 9 -100z M210 681q41 136 140 167q39 12 81 12q65 0 138 -29q120 -47 191 -219q60 -146 60 -252q0 -20 -2 -36q-12 -116 -80 -160q-38 -25 -97 -26q-47 0 -109 16q-139 36 -251 214q-82 130 -82 237q0 40 11 76z" />
<glyph unicode="p" horiz-adv-x="1132" d="M-34 713l24 -37l69 48q27 7 48 7q83 0 83 -112q0 -10 -1 -21l1 -765q-79 -96 -178 -218l22 -19q40 21 91 21q116 0 290 -111l234 250l-40 29l-58 -76q-163 95 -303 108l140 99v143q100 -68 199 -68q145 0 286 147q222 231 222 432q0 14 -1 28q-16 212 -152 322 q-119 98 -248 98q-17 0 -35 -2q-127 -19 -272 -235v241zM387 675q89 132 203 132q30 0 62 -9q156 -45 232 -224q41 -95 41 -169q0 -67 -33 -119q-70 -107 -241.5 -107t-262.5 195z" />
<glyph unicode="q" horiz-adv-x="1013" d="M46 334q64 -213 246 -294q109 -48 178 -48q46 0 74 22q70 55 173 172v-686l433 318l-1 71l-219 -154l-2 1092l141 172l-358 1l-250 1q-163 -104 -321 -279q-112 -126 -112 -269q0 -58 18 -119zM214 552q-1 17 -1 33q0 146 112 228l390 -2l-1 -526q-71 -117 -169 -117 t-207.5 107t-123.5 277z" />
<glyph unicode="r" horiz-adv-x="808" d="M-43 742l25 -31l82 59q25 10 44 10q53 0 53 -78q0 -9 -1 -19l-1 -450v-11q0 -112 117 -194q49 -34 99 -34q78 0 161 79l115 145l-26 20l-57 -63q-24 -23 -60 -23q-30 0 -67 16q-82 36 -83 160v415l47 57q40 28 80 28q77 0 148 -109q-38 -37 -55 -69q-17 -31 -17 -72 q0 -13 2 -27q7 -58 62 -93q39 -25 84 -25q17 0 37 4q66 14 106 116l-8 5q-40 -97 -106 -103q-10 -1 -20 -1q-52 0 -88 28q-42 32 -45 88v6q0 53 35 95q19 22 35 36l15 13q7 6 14 10l-2 1l135 116q-26 82 -94 129q-46 32 -100 31q-26 -1 -54 -7q-86 -22 -211 -193v218z" />
<glyph unicode="s" horiz-adv-x="920" d="M142 109q94 -83 272 -113q44 -8 85 -7q121 0 205 70q112 93 156 181q40 80 40 153v15q-4 79 -73 139.5t-359 130.5q-205 49 -204 107q0 25 35 51l345 -1l162 180q25 31 37 57q12 28 12 61q1 19 -3 39q-10 58 -68 89q-36 19 -75 20q-23 1 -47 -7q-66 -18 -98 -122l8 -5 q35 99 100 109q16 2 31 3q45 0 79 -22q44 -29 50 -85q1 -8 0 -16q0 -48 -30 -88q-14 -19 -27 -33h-395q-184 -160 -216 -296q-6 -26 -6 -50q0 -99 107 -151q133 -66 270 -102.5t183 -83.5q32 -33 31 -73q1 -17 -5 -35q-20 -62 -136 -70q-10 -1 -21 0q-109 0 -249 68 q-154 76 -163 134q-1 8 -1 15q0 48 55 84l-27 24q-157 -110 -157 -197q0 -89 97 -173z" />
<glyph unicode="t" horiz-adv-x="933" d="M11 735l34 -33l106 91h149v-440v-15q0 -132 50 -206q52 -78 136 -120q44 -22 95 -22q47 0 101 18q114 38 169.5 113t98.5 183l-38 14l-38 -63q-69 -94 -164 -94q-35 1 -73 13q-143 48 -142 238l-1 376h253l117 176q47 59 62 104q6 20 7 42q0 27 -10 58q-17 56 -77 80 q-29 12 -60 13t-63 -13q-63 -26 -84 -133l9 -3q23 103 87 120q26 7 50 7q33 -1 61 -15q48 -24 60 -79q3 -16 3 -31q0 -38 -21 -74q-16 -28 -31 -47h-366l1 355q-177 -370 -481 -613z" />
<glyph unicode="u" horiz-adv-x="1273" d="M9 718l26 -28l72 57q22 11 41 11q24 0 44 -16q31 -26 30 -118q0 -18 -1 -37l2 -247v-17q0 -185 146 -275q82 -50 164 -50q72 0 143 38q122 63 158 180q26 -106 110 -168q71 -52 136 -52q53 0 102 34q110 76 129 203l-25 1q-41 -111 -108 -111q-20 -1 -42 9 q-98 42 -104 175v716l-408 -301l17 -37l72 48q20 10 39 10q19 -1 37 -11q32 -18 32 -89v-16l-1 -335q-51 -156 -172 -155q-25 0 -53 6q-164 39 -164 361q0 25 1 53v466z" />
<glyph unicode="v" horiz-adv-x="980" d="M-43 828l19 -22l45 40q15 11 29 11q31 0 56 -51l374 -624q28 -57 28 -105q0 -39 -18 -72l14 -22q80 64 130 124q31 37 30 90q0 32 -11 70l215 232q112 126 112 253q0 48 -16 96q-58 174 -210 180h-7q-148 0 -297 -200l23 -23l58 52q36 20 68 20q65 1 119 -79 q80 -118 88 -222v-8q0 -101 -183 -257l-380 645q-36 59 -76 59q-25 -1 -51 -23q-68 -60 -159 -164z" />
<glyph unicode="w" horiz-adv-x="1404" d="M-5 804l27 -28q37 53 75 53q28 0 56 -29l293 -605q54 -91 54 -144q0 -32 -19 -50l24 -15q68 36 120 84.5t59 136.5l119 141l81 -168q34 -60 34 -111q0 -37 -18 -69l20 -14q106 64 143 124q31 50 31 113q0 12 -1 24l162 199q118 177 119 313q0 50 -17 95q-60 166 -256 174 l-253 -193l19 -34l62 54q19 8 40 8q61 0 133 -70q96 -94 96 -224q0 -132 -135 -264l-323 669q-30 35 -67 35q-28 1 -60 -19q-74 -46 -181 -144l18 -31q36 21 76 35q1 0 3 1q44 0 246 -446l-120 -137l-343 701q-27 42 -62 42q-46 0 -107 -70z" />
<glyph unicode="x" horiz-adv-x="1104" d="M-6 0l419 -1l175 202l-324 -1l212 230l318 -386q50 -51 87 -51q24 0 43 22l202 218l-24 26q-39 -54 -91 -54q-34 0 -74 24l-295 345l454 406l-20 26l-341 1l-195 -214l277 -1l-205 -180l-289 360q-42 46 -82 46t-79 -46l-157 -170l20 -26q48 52 92 52q33 0 64 -29 l262 -324z" />
<glyph unicode="y" horiz-adv-x="1028" d="M-3 719l24 -36q62 44 95 44q37 0 37 -58v-13l-1 -337q12 -256 210 -309q36 -9 71 -9q162 0 320 201v-196q2 -31 2 -60q0 -198 -79 -260q-43 -34 -95 -34q-59 0 -129 41q-134 79 -216 258l-167 -179q148 -227 329 -248q24 -2 49 -2q159 0 335 111q193 122 193 339 q0 13 -1 26l1 1017l-397 -273l27 -45q64 50 99 50q38 0 40 -61v-389q-60 -125 -166 -125q-35 0 -74 14q-146 48 -146 209q0 17 2 35l1 583z" />
<glyph unicode="z" horiz-adv-x="899" d="M1 6l19 -21q23 16 61 16h5l624 -1l208 311l-26 6q-49 -77 -139 -79h-487l608 770h-629l-144 -202q-16 -27 -23 -50q-7 -21 -7 -44q0 -26 9 -56q17 -56 77 -80q29 -12 60 -13t63 13q63 26 84 133l-9 3q-23 -103 -87 -120q-26 -7 -50 -7q-34 1 -62 15q-48 24 -58 79 q-3 16 -4 31q0 38 21 74q7 12 13 22l506 -1z" />
<glyph unicode="{" horiz-adv-x="509" d="M14 634q127 -161 125 -297q-30 -670 308 -744l66 134q-237 53 -221 531v180q-23 157 -121 221q124 60 131 279v308q-5 349 33 404.5t134 -12.5l135 92q-207 91 -340 -74t-125 -468v-246q2 -166 -125 -308z" />
<glyph unicode="|" horiz-adv-x="327" d="M107 1794l2 -2140l114 -2l1 2141z" />
<glyph unicode="}" horiz-adv-x="563" d="M-26 -376q207 -91 340 74t125 468v246q-2 166 125 308q-127 161 -125 297q30 670 -308 744l-66 -134q237 -53 221 -531v-180q23 -157 121 -221q-124 -60 -131 -279v-308q5 -349 -33 -404.5t-134 12.5z" />
<glyph unicode="&#xa3;" horiz-adv-x="1004" d="M14 -5l753 1l226 253l-32 15q-53 -57 -127 -57h-584q103 75 114 233h200l198 173h-377l9 97h210l198 173h-402l10 278l81 104q120 84 243 -99l169 146q-26 82 -94 129t-154 24.5t-379 -387.5l-9 -221l-251 -184l26 -20q37 56 204 67l-9 -107h-1l-220 -210l26 -20 q37 56 154 67l22 -1l-22 -239z" />
<glyph unicode="&#xa6;" horiz-adv-x="282" d="M107 1794l2 -990h114l1 989zM108 593l1 -942l114 1l1 941h-116z" />
<glyph unicode="&#xad;" d="M32 605h703l151 172h-728z" />
<glyph unicode="&#xbc;" horiz-adv-x="1074" d="M65 1291l17 -29q87 81 100 13v-450l-102 -126l256 -1l101 118h-202q54 60 68 140v529zM226 149l70 -83l469 1226l-64 87zM460 236l263 1l1 -127l-74 -111l211 -1l88 114h-182q53 34 69 96v32h147l73 114h-221l1 213l-112 -128v-85l-142 -1q256 337 160 462l-100 -113 q61 -111 -182 -466z" />
<glyph unicode="&#xbd;" horiz-adv-x="1097" d="M65 1291l17 -29q87 81 100 13v-450l-102 -126l256 -1l101 118h-202q54 60 68 140v529zM226 149l70 -83l469 1226l-64 87zM521 -4l441 1l98 177l-18 7l-23 -38l-327 -1l270 353q49 64 10.5 161t-161.5 102t-191.5 -65t-77.5 -153t42 -146l112 106q-60 70 -51 134t83 56 t127 -92t-3 -172l-51 -67z" />
<glyph unicode="&#xbe;" horiz-adv-x="1173" d="M48.5 845.5q68.5 -107.5 160.5 -132.5t150 20.5t131 141.5t59 224q-16 76 -61 114t-139 30l174 218h-390l-83 -130h320l-141 -180q91 16 147.5 -27.5t83.5 -128.5t-39.5 -145.5t-150 -33.5t-128.5 110t21 145l-18 15q-165 -133 -96.5 -240.5zM316 149l70 -83l469 1226 l-64 87zM550 236l263 1l1 -127l-74 -111l211 -1l88 114h-182q53 34 69 96v32h147l73 114h-221l1 213l-112 -128v-85l-142 -1q256 337 160 462l-100 -113q61 -111 -182 -466z" />
<glyph unicode="&#xd7;" horiz-adv-x="780" d="M52 898l246 -266l-238 -275l53 -51l237 268l241 -281l148 148l-249 280l252 273l-52 50l-255 -267l-224 270z" />
<glyph unicode="&#xf7;" horiz-adv-x="1045" d="M52 585h793l151 172h-818zM344 423q92 -77 127 -197l181 142q-40 135 -126 197zM344 973q92 -77 127 -197l181 142q-40 135 -126 197z" />
<glyph unicode="&#x2000;" horiz-adv-x="897" />
<glyph unicode="&#x2001;" horiz-adv-x="1794" />
<glyph unicode="&#x2002;" horiz-adv-x="897" />
<glyph unicode="&#x2003;" horiz-adv-x="1794" />
<glyph unicode="&#x2004;" horiz-adv-x="598" />
<glyph unicode="&#x2005;" horiz-adv-x="448" />
<glyph unicode="&#x2006;" horiz-adv-x="299" />
<glyph unicode="&#x2007;" horiz-adv-x="299" />
<glyph unicode="&#x2008;" horiz-adv-x="224" />
<glyph unicode="&#x2009;" horiz-adv-x="358" />
<glyph unicode="&#x200a;" horiz-adv-x="99" />
<glyph unicode="&#x2010;" d="M32 605h703l151 172h-728z" />
<glyph unicode="&#x2011;" d="M32 605h703l151 172h-728z" />
<glyph unicode="&#x2012;" d="M32 605h703l151 172h-728z" />
<glyph unicode="&#x2013;" horiz-adv-x="1086" d="M32 605h843l181 172h-873z" />
<glyph unicode="&#x2014;" horiz-adv-x="2110" d="M32 605h1686l362 172h-1746z" />
<glyph unicode="&#x2018;" horiz-adv-x="343" d="M45.5 1192q-22.5 -152 55.5 -210l190 172q-133 167 87 364l-27 25q-283 -199 -305.5 -351z" />
<glyph unicode="&#x2019;" horiz-adv-x="371" d="M38 1006l27 -25q283 199 305.5 351t-55.5 210l-190 -172q133 -167 -87 -364z" />
<glyph unicode="&#x201c;" horiz-adv-x="582" d="M45.5 1192q-22.5 -152 55.5 -210l190 172q-133 167 87 364l-27 25q-283 -199 -305.5 -351zM315.5 1192q-22.5 -152 55.5 -210l190 172q-133 167 87 364l-27 25q-283 -199 -305.5 -351z" />
<glyph unicode="&#x201d;" horiz-adv-x="656" d="M38 1006l27 -25q283 199 305.5 351t-55.5 210l-190 -172q133 -167 -87 -364zM308 1006l27 -25q283 199 305.5 351t-55.5 210l-190 -172q133 -167 -87 -364z" />
<glyph unicode="&#x202f;" horiz-adv-x="358" />
<glyph unicode="&#x205f;" horiz-adv-x="448" />
<glyph unicode="&#x25fc;" horiz-adv-x="1020" d="M0 0v1020h1020v-1020h-1020z" />
</font>
</defs>
</svg>
